<mxfile host="65bd71144e">
    <diagram id="JZjeosmMhwT-NBzIWQAe" name="Page-1">
        <mxGraphModel dx="741" dy="567" grid="1" gridSize="10" guides="1" tooltips="1" connect="1" arrows="1" fold="1" page="1" pageScale="1" pageWidth="850" pageHeight="1100" math="0" shadow="0">
            <root>
                <mxCell id="0"/>
                <mxCell id="1" parent="0"/>
                <mxCell id="2" value="" style="edgeStyle=none;html=1;strokeColor=#FFFFFF;" parent="1" source="3" target="7" edge="1">
                    <mxGeometry relative="1" as="geometry"/>
                </mxCell>
                <mxCell id="3" value="Frontend Application" style="whiteSpace=wrap;html=1;rounded=1;fillColor=#6a00ff;fontColor=#ffffff;strokeColor=#3700CC;gradientDirection=south;gradientColor=none;" parent="1" vertex="1">
                    <mxGeometry x="50" y="680" width="120" height="40" as="geometry"/>
                </mxCell>
                <mxCell id="6" style="edgeStyle=none;html=1;fontSize=14;strokeColor=#FFFFFF;" parent="1" source="7" target="14" edge="1">
                    <mxGeometry relative="1" as="geometry"/>
                </mxCell>
                <mxCell id="17" style="edgeStyle=none;html=1;exitX=1;exitY=0;exitDx=0;exitDy=0;strokeColor=#FFFFFF;" parent="1" source="7" target="11" edge="1">
                    <mxGeometry relative="1" as="geometry"/>
                </mxCell>
                <mxCell id="19" style="edgeStyle=none;html=1;exitX=1;exitY=1;exitDx=0;exitDy=0;entryX=0;entryY=0;entryDx=0;entryDy=0;strokeColor=#FFFFFF;" parent="1" source="7" target="9" edge="1">
                    <mxGeometry relative="1" as="geometry"/>
                </mxCell>
                <mxCell id="33" style="edgeStyle=none;html=1;entryX=0.5;entryY=1;entryDx=0;entryDy=0;strokeColor=#FFFFFF;" parent="1" source="7" target="32" edge="1">
                    <mxGeometry relative="1" as="geometry"/>
                </mxCell>
                <mxCell id="7" value="Centralised&lt;br&gt;Server" style="ellipse;whiteSpace=wrap;html=1;fillColor=#d80073;fontColor=#ffffff;strokeColor=#A50040;gradientColor=none;" parent="1" vertex="1">
                    <mxGeometry x="230" y="670" width="120" height="60" as="geometry"/>
                </mxCell>
                <mxCell id="9" value="ML&lt;br&gt;Classifier&lt;br&gt;Yes/No" style="rhombus;whiteSpace=wrap;html=1;fillColor=#6a00ff;fontColor=#ffffff;strokeColor=#3700CC;gradientColor=none;" parent="1" vertex="1">
                    <mxGeometry x="370" y="720" width="90" height="90" as="geometry"/>
                </mxCell>
                <mxCell id="11" value="ML Quiz model" style="rhombus;whiteSpace=wrap;html=1;fillColor=#6a00ff;fontColor=#ffffff;strokeColor=#3700CC;gradientColor=none;" parent="1" vertex="1">
                    <mxGeometry x="375" y="600" width="80" height="80" as="geometry"/>
                </mxCell>
                <mxCell id="14" value="&lt;font style=&quot;font-size: 12px&quot; color=&quot;#ffffff&quot;&gt;Centralized&lt;br&gt;Database&lt;/font&gt;" style="whiteSpace=wrap;html=1;fontSize=14;fillColor=#e3c800;fontColor=#000000;strokeColor=#B09500;gradientColor=none;rounded=1;" parent="1" vertex="1">
                    <mxGeometry x="230" y="770" width="130" height="40" as="geometry"/>
                </mxCell>
                <mxCell id="30" style="edgeStyle=none;html=1;fontSize=12;fontColor=#FFFFFF;strokeColor=#FFFFFF;" parent="1" source="20" target="21" edge="1">
                    <mxGeometry relative="1" as="geometry"/>
                </mxCell>
                <mxCell id="31" style="edgeStyle=none;html=1;entryX=0;entryY=0.5;entryDx=0;entryDy=0;fontSize=12;fontColor=#FFFFFF;strokeColor=#FFFFFF;" parent="1" source="20" target="22" edge="1">
                    <mxGeometry relative="1" as="geometry"/>
                </mxCell>
                <mxCell id="34" style="edgeStyle=none;html=1;exitX=1;exitY=0;exitDx=0;exitDy=0;entryX=0;entryY=1;entryDx=0;entryDy=0;strokeColor=#FFFFFF;" edge="1" parent="1" source="20" target="14">
                    <mxGeometry relative="1" as="geometry"/>
                </mxCell>
                <mxCell id="20" value="Admin Panel" style="ellipse;whiteSpace=wrap;html=1;fillColor=#d80073;fontColor=#ffffff;strokeColor=#A50040;gradientColor=none;" parent="1" vertex="1">
                    <mxGeometry x="50" y="840" width="120" height="60" as="geometry"/>
                </mxCell>
                <mxCell id="21" value="Manage Complaints/Feedback" style="whiteSpace=wrap;html=1;rounded=1;fillColor=#008a00;fontColor=#ffffff;strokeColor=#005700;gradientDirection=south;" parent="1" vertex="1">
                    <mxGeometry x="230" y="840" width="129" height="40" as="geometry"/>
                </mxCell>
                <mxCell id="22" value="Statistical Data" style="whiteSpace=wrap;html=1;rounded=1;fillColor=#008a00;fontColor=#ffffff;strokeColor=#005700;gradientDirection=south;" parent="1" vertex="1">
                    <mxGeometry x="230" y="900" width="130" height="40" as="geometry"/>
                </mxCell>
                <mxCell id="32" value="YouTube&lt;br&gt;API" style="rhombus;whiteSpace=wrap;html=1;fillColor=#6a00ff;fontColor=#ffffff;strokeColor=#3700CC;gradientColor=none;" parent="1" vertex="1">
                    <mxGeometry x="250" y="560" width="80" height="80" as="geometry"/>
                </mxCell>
            </root>
        </mxGraphModel>
    </diagram>
</mxfile>